M48
; DRILL file {KiCad 9.0.4} date 2026-08-02T11:05:51-0500
; FORMAT={-:-/ absolute / inch / decimal}
; #@! TF.CreationDate,2026-08-02T11:05:51-05:00
; #@! TF.GenerationSoftware,Kicad,Pcbnew,9.0.4
; #@! TF.FileFunction,Plated,1,2,PTH
FMAT,2
INCH
; #@! TA.AperFunction,Plated,PTH,ViaDrill
T1C0.0118
; #@! TA.AperFunction,Plated,PTH,ComponentDrill
T2C0.0295
; #@! TA.AperFunction,Plated,PTH,ComponentDrill
T3C0.0315
; #@! TA.AperFunction,Plated,PTH,ComponentDrill
T4C0.0335
; #@! TA.AperFunction,Plated,PTH,ComponentDrill
T5C0.0340
; #@! TA.AperFunction,Plated,PTH,ComponentDrill
T6C0.0354
; #@! TA.AperFunction,Plated,PTH,ComponentDrill
T7C0.0394
; #@! TA.AperFunction,Plated,PTH,ComponentDrill
T8C0.0472
; #@! TA.AperFunction,Plated,PTH,ComponentDrill
T9C0.0512
; #@! TA.AperFunction,Plated,PTH,ComponentDrill
T10C0.0866
%
G90
G05
T1
X0.4724Y-7.7165
X0.5118Y-5.0394
X0.5118Y-5.4724
X0.5512Y-6.9685
X0.5906Y-4.7244
X0.6299Y-5.0394
X0.6299Y-5.4724
X0.6299Y-6.9685
X0.7087Y-7.5591
X0.9055Y-6.6535
X0.9449Y-7.4409
X1.063Y-5.9449
X1.1417Y-5.1575
X1.2205Y-6.063
X1.2205Y-7.5197
X1.2598Y-5.0787
X1.2598Y-6.9685
X1.2598Y-8.1496
X1.3386Y-4.1732
X1.3386Y-5.4724
X1.378Y-5.9055
X1.378Y-7.0079
X1.378Y-7.0472
X1.4567Y-5.0787
X1.4567Y-6.6929
X1.5354Y-5.5118
X1.5354Y-5.9055
X1.5354Y-6.1417
X1.5354Y-6.3386
X1.5354Y-7.0866
X1.5354Y-7.8346
X1.5748Y-4.1732
X1.5748Y-7.1654
X1.6142Y-6.6142
X1.6929Y-7.126
X1.7717Y-6.4173
X1.811Y-7.7165
X1.8504Y-5.5512
X1.8504Y-7.5197
X1.8898Y-7.2441
X2.0079Y-4.3701
X2.0079Y-6.1417
X2.0079Y-6.378
X2.0472Y-7.5197
X2.0669Y-5.689
X2.0866Y-4.1339
X2.1654Y-7.7953
X2.2441Y-5.5512
X2.2441Y-6.2598
X2.2441Y-7.9134
X2.2835Y-6.5748
X2.3622Y-5.4331
X2.3622Y-7.1654
X2.4016Y-5.5512
X2.4409Y-6.4961
X2.4803Y-4.6457
X2.4803Y-5.7087
X2.4803Y-5.7874
X2.4803Y-6.063
X2.4862Y-5.0335
X2.5197Y-5.2362
X2.5591Y-5.4724
X2.5591Y-8.0709
X2.5984Y-4.9213
X2.5984Y-5.315
X2.5984Y-5.5118
X2.6102Y-6.4567
X2.6378Y-4.5902
X2.6378Y-5.2756
X2.6378Y-5.7874
X2.6378Y-6.7323
X2.6378Y-7.5197
X2.6772Y-5.9843
X2.6772Y-6.063
X2.6772Y-7.6772
X2.7165Y-5.1181
X2.7165Y-7.9528
X2.7559Y-4.2126
X2.7559Y-5.5906
X2.7559Y-7.5591
X2.7559Y-8.1102
X2.7953Y-5.9843
X2.7953Y-7.7953
X2.8335Y-6.298
X2.8346Y-5.4331
X2.874Y-4.6063
X2.8752Y-6.3398
X2.9134Y-4.7244
X2.9134Y-5.7874
X2.9134Y-6.4567
X2.9134Y-7.9134
X2.9921Y-4.9213
X2.9921Y-6.378
X2.9921Y-7.5984
X3.0709Y-5.9843
X3.0709Y-6.2205
X3.0709Y-6.3386
X3.0709Y-6.5748
X3.1102Y-5.1181
X3.1102Y-6.063
X3.1496Y-5.0
X3.1496Y-5.5118
X3.1496Y-6.1024
X3.189Y-7.9134
X3.2677Y-7.4016
X3.3071Y-6.1024
X3.3858Y-5.7874
X3.3858Y-7.5591
X3.4646Y-6.378
X3.5433Y-4.2126
X3.622Y-5.0394
X3.622Y-5.2756
X3.6597Y-5.8644
X3.6614Y-5.6299
X3.7008Y-4.9213
X3.7008Y-4.9606
X3.7008Y-5.2756
X3.7008Y-7.9134
X3.702Y-5.4712
X3.7414Y-5.2768
X3.7795Y-5.6299
X3.8189Y-7.2047
X3.8571Y-4.8831
X3.8583Y-4.8425
X3.8976Y-4.685
X3.8976Y-5.1969
X3.8976Y-7.5984
X3.937Y-4.8425
X3.9764Y-6.3386
X4.0157Y-4.9606
X4.0157Y-5.1181
X4.0551Y-4.1732
X4.0551Y-6.063
X4.0945Y-5.0
X4.0945Y-7.7559
X4.1339Y-5.5118
X4.1732Y-4.8031
X4.2126Y-5.5906
X4.2126Y-6.8898
X4.252Y-5.1575
X4.252Y-5.7874
X4.3307Y-4.4488
X4.3307Y-6.6929
X4.3701Y-5.9843
X4.3701Y-6.811
X4.4094Y-6.8898
X4.4488Y-6.5354
X4.4488Y-7.0866
T2
X3.552Y-4.772
X3.552Y-5.0
X3.552Y-5.228
X3.602Y-4.772
X3.602Y-5.0
X3.602Y-5.228
X3.622Y-5.4331
X3.622Y-5.4831
X3.622Y-5.5331
X3.652Y-4.772
X3.652Y-5.0
X3.652Y-5.228
X3.8083Y-4.772
X3.8083Y-5.0
X3.8083Y-5.2756
X3.8583Y-4.772
X3.8583Y-5.0
X3.8583Y-5.2756
X3.9083Y-4.772
X3.9083Y-5.0
X3.9083Y-5.2756
T3
X0.2165Y-6.7717
X0.2756Y-4.3382
X0.2756Y-4.6382
X0.315Y-7.7165
X0.3299Y-7.2622
X0.3299Y-7.3622
X0.3299Y-7.4622
X0.3299Y-7.5622
X0.4134Y-6.7717
X0.4134Y-7.7165
X0.5118Y-5.2953
X0.5118Y-5.3937
X0.5193Y-4.8106
X0.5193Y-5.1106
X0.5587Y-7.7953
X0.5748Y-4.102
X0.5748Y-4.402
X0.6193Y-4.8106
X0.6193Y-5.1106
X0.6299Y-5.2953
X0.6299Y-5.3937
X0.6299Y-7.2622
X0.6299Y-7.3622
X0.6299Y-7.4622
X0.6299Y-7.5622
X0.7193Y-4.8106
X0.7193Y-5.1106
X0.7555Y-6.9508
X0.7748Y-4.102
X0.7748Y-4.402
X0.7874Y-7.4016
X0.8193Y-4.8106
X0.8193Y-5.1106
X0.8465Y-5.3937
X0.8587Y-7.7953
X0.8858Y-7.4016
X0.9449Y-5.3937
X1.0555Y-6.9508
X1.063Y-7.1728
X1.063Y-7.4728
X1.0827Y-5.0787
X1.1811Y-5.0787
X1.2598Y-7.1728
X1.2598Y-7.4728
X1.3976Y-4.2126
X1.4642Y-7.2283
X1.4642Y-7.4283
X1.4961Y-4.2126
X1.6732Y-4.2126
X1.7642Y-7.2283
X1.7642Y-7.4283
X1.7717Y-4.2126
X1.8898Y-7.1728
X1.8898Y-7.4728
X1.9291Y-5.748
X1.9291Y-5.848
X1.9291Y-5.948
X1.9488Y-5.5512
X1.9685Y-4.4488
X1.9685Y-4.5472
X2.0472Y-5.5512
X2.0472Y-7.1728
X2.0472Y-7.4728
X2.1654Y-5.3299
X2.1654Y-5.4299
X2.1654Y-5.5299
X2.1654Y-5.6299
X2.2028Y-6.1886
X2.2028Y-6.4886
X2.2047Y-7.1728
X2.2047Y-7.4728
X2.226Y-5.015
X2.326Y-5.015
X2.3622Y-5.1969
X2.3622Y-6.1886
X2.3622Y-6.4886
X2.426Y-5.015
X2.4606Y-5.1969
X2.4654Y-5.3299
X2.4654Y-5.4299
X2.4654Y-5.5299
X2.4654Y-5.6299
X2.5157Y-6.1886
X2.5157Y-6.4886
X2.5197Y-4.7047
X2.5197Y-4.8031
X2.5197Y-7.1728
X2.5197Y-7.4728
X2.6622Y-5.3299
X2.6622Y-5.6299
X2.6677Y-4.9118
X2.6677Y-5.2118
X2.6752Y-6.1886
X2.6752Y-6.4886
X2.6772Y-7.1728
X2.6772Y-7.4728
X2.8346Y-6.1886
X2.8346Y-6.4886
X2.8346Y-6.6685
X2.8346Y-6.9685
X2.8346Y-7.1728
X2.8346Y-7.4728
X2.8591Y-4.9213
X2.8591Y-5.2213
X2.8591Y-5.3374
X2.8591Y-5.6374
X2.9602Y-4.7244
X2.9921Y-7.1728
X2.9921Y-7.4728
X2.9941Y-6.1886
X2.9941Y-6.4886
X3.0315Y-5.8661
X3.0559Y-4.9118
X3.0559Y-5.2118
X3.0559Y-5.3299
X3.0559Y-5.6299
X3.1496Y-7.1728
X3.1496Y-7.4728
X3.1535Y-6.1886
X3.1535Y-6.4886
X3.2283Y-5.8661
X3.2528Y-4.9362
X3.2528Y-5.2362
X3.2528Y-5.3374
X3.2528Y-5.6374
X3.2602Y-4.7244
X3.3071Y-7.1654
X3.3071Y-7.4654
X3.313Y-6.1886
X3.313Y-6.4886
X3.3661Y-4.2913
X3.4646Y-7.1728
X3.4646Y-7.4728
X3.563Y-4.2913
X3.622Y-6.4173
X3.7205Y-6.4173
X3.7402Y-7.2441
X3.7402Y-7.5441
X3.7992Y-5.4724
X3.8386Y-4.252
X3.8976Y-5.4724
X3.9764Y-7.5394
X3.9764Y-7.6378
X4.0354Y-4.252
X4.0748Y-6.6142
X4.0945Y-4.9173
X4.0945Y-5.0768
X4.0945Y-5.2362
X4.0945Y-5.3957
X4.0945Y-5.7146
X4.0945Y-6.8898
X4.102Y-5.9016
X4.102Y-6.0413
X4.102Y-6.1811
X4.102Y-6.3209
X4.102Y-7.3303
X4.102Y-7.4303
X4.102Y-7.5303
X4.102Y-7.6303
X4.1831Y-4.5276
X4.2717Y-6.6142
X4.2913Y-6.8898
X4.3209Y-4.5276
X4.3945Y-4.9173
X4.3945Y-5.0768
X4.3945Y-5.2362
X4.3945Y-5.3957
X4.3945Y-5.7146
X4.402Y-5.9016
X4.402Y-6.0413
X4.402Y-6.1811
X4.402Y-6.3209
X4.402Y-7.3303
X4.402Y-7.4303
X4.402Y-7.5303
X4.402Y-7.6303
X4.4094Y-7.126
X4.4094Y-7.2244
T4
X1.4961Y-4.3524
X1.4961Y-4.7815
X1.7717Y-4.3524
X1.7717Y-4.7815
X2.126Y-4.2343
X2.126Y-4.6634
X2.3228Y-4.2343
X2.3228Y-4.6634
T5
X3.5155Y-5.6693
X3.5155Y-5.8137
X3.5155Y-5.958
X3.5155Y-6.1024
X3.8155Y-5.6693
X3.8155Y-5.8137
X3.8155Y-5.958
X3.8155Y-6.1024
T6
X0.9055Y-6.4961
X1.0055Y-6.4961
T7
X1.1811Y-6.9472
X1.1811Y-7.0472
X1.3819Y-7.7913
X1.3819Y-7.8898
X1.3819Y-7.9882
X1.4803Y-7.7913
X1.4803Y-7.8898
X1.4803Y-7.9882
X1.6142Y-5.4331
X1.8409Y-4.0551
X1.8937Y-7.7913
X1.8937Y-7.8898
X1.8937Y-7.9882
X1.9409Y-4.0551
X1.9921Y-7.7913
X1.9921Y-7.8898
X1.9921Y-7.9882
X2.0079Y-5.4331
X2.0409Y-4.0551
X2.1409Y-4.0551
X2.2409Y-4.0551
X2.2441Y-5.9055
X2.3409Y-4.0551
X2.4055Y-7.7913
X2.4055Y-7.8898
X2.4055Y-7.9882
X2.4409Y-4.0551
X2.5039Y-7.7913
X2.5039Y-7.8898
X2.5039Y-7.9882
X2.5409Y-4.0551
X2.6378Y-4.3488
X2.6378Y-4.5488
X2.6378Y-5.9055
X2.6409Y-4.0551
X2.7409Y-4.0551
X2.8409Y-4.0551
X2.878Y-7.7913
X2.878Y-7.8898
X2.878Y-7.9882
X2.9764Y-7.7913
X2.9764Y-7.8898
X2.9764Y-7.9882
X3.0315Y-4.3488
X3.0315Y-4.5488
X3.4291Y-7.7913
X3.4291Y-7.8898
X3.4291Y-7.9882
X3.5276Y-7.7913
X3.5276Y-7.8898
X3.5276Y-7.9882
T8
X1.5354Y-6.2402
X1.5354Y-6.8307
X1.8898Y-6.2402
X1.8898Y-6.8307
X3.2087Y-6.7323
X3.7992Y-6.7323
X3.8976Y-7.9134
X3.8976Y-8.1102
X4.0945Y-7.9134
X4.0945Y-8.1102
X4.2913Y-7.9134
X4.2913Y-8.1102
T9
X0.4724Y-7.9921
X0.6693Y-7.9921
X0.8661Y-7.9921
T10
X0.2362Y-4.1339
X4.3307Y-4.1339
M30
